# xmcd
#
# Track frame offsets: 
#        150
#        33830
#        64590
#        86820
#        108729
#        129872
#        155230
#        176359
#        188961
#        224831
#        244763
#        271136
#        291027
#        310612
#        340898
#
# Disc length: 4785 seconds
#
# Revision: 1
# Processed by: cddbd v1.5.2PL0 Copyright (c) Steve Scherf et al.
# Submitted via: ExactAudioCopy v0.99pb5
#
DISCID=db12af0f
DTITLE=Various Artist - Les Rarissimes du Quintette  à Vent de l'Orchestre Na
DTITLE=tional de la Radiodiffusion Fran Ìaise CD1
DYEAR=1956
DGENRE=Classical
TTITLE0=Wolfgang Amadeus Mozert - Quinette pour piano, hautbois, clari
TTITLE0=nette, cor and basson en mi b Ámol majeur, K.452 - I.Largo - All
TTITLE0=eg
TTITLE1=Wolfgang Amadeus Mozert - Quinette pour piano, hautbois, clari
TTITLE1=nette, cor and basson en mi b Ámol majeur, K.452 - II.LArghetto
TTITLE2=Wolfgang Amadeus Mozert - Quinette pour piano, hautbois, clari
TTITLE2=nette, cor and basson en mi b Ámol majeur, K.452 - III.Rondo¡GAl
TTITLE2=le
TTITLE3=Wolfgang Amadeus Mozert - Cassation poutr hautbois, clarinette
TTITLE3=, basson and cor en mi b Ámol majeur - I.Adagio - Allegro
TTITLE4=Wolfgang Amadeus Mozert - Cassation poutr hautbois, clarinette
TTITLE4=, basson and cor en mi b Ámol majeur - II.Menuetto
TTITLE5=Wolfgang Amadeus Mozert - Cassation poutr hautbois, clarinette
TTITLE5=, basson and cor en mi b Ámol majeur - III.Adagio
TTITLE6=Wolfgang Amadeus Mozert - Cassation poutr hautbois, clarinette
TTITLE6=, basson and cor en mi b Ámol majeur - IV.Polacca
TTITLE7=Wolfgang Amadeus Mozert - Cassation poutr hautbois, clarinette
TTITLE7=, basson and cor en mi b Ámol majeur - V.Presto
TTITLE8=Francis Poulenc - Sextuor pour piano, fl ôte, hautbois, clarin
TTITLE8=ette, basson and cor, FP100 - I.Allegro vivace
TTITLE9=Francis Poulenc - Sextuor pour piano, fl ôte, hautbois, clarin
TTITLE9=ette, basson and cor, FP100 - II.Divertissement
TTITLE10=Francis Poulenc - Sextuor pour piano, fl ôte, hautbois, clari
TTITLE10=nette, basson and cor, FP100 - III.Finale
TTITLE11=Jean Fran Ìaix - Quintette pour fl ôte, hautbois, clarinette,
TTITLE11=basson and cor - I.Andante tranquillo - Allegro assai
TTITLE12=Jean Fran Ìaix - Quintette pour fl ôte, hautbois, clarinette,
TTITLE12=basson and cor - II.Presto
TTITLE13=Jean Fran Ìaix - Quintette pour fl ôte, hautbois, clarinette,
TTITLE13=basson and cor - III.Th áme and variations
TTITLE14=Jean Fran Ìaix - Quintette pour fl ôte, hautbois, clarinette,
TTITLE14=basson and cor - IV.Tempo di marcia francese
EXTD=
EXTT0=
EXTT1=
EXTT2=
EXTT3=
EXTT4=
EXTT5=
EXTT6=
EXTT7=
EXTT8=
EXTT9=
EXTT10=
EXTT11=
EXTT12=
EXTT13=
EXTT14=
PLAYORDER=
